<svg width="35" height="45" viewBox="0 0 35 45" fill="none" xmlns="http://www.w3.org/2000/svg">
<path fill-rule="evenodd" clip-rule="evenodd" d="M17.5 45C18.4275 45 35 27.2425 35 17.55C35 7.85738 27.1649 0 17.5 0C7.835 0 0 7.85738 0 17.55C0 27.2425 16.5725 45 17.5 45ZM17.5 26.3279C22.4002 26.3279 26.3726 22.3441 26.3726 17.43C26.3726 12.5158 22.4002 8.53211 17.5 8.53211C12.5999 8.53211 8.62752 12.5158 8.62752 17.43C8.62752 22.3441 12.5999 26.3279 17.5 26.3279Z" fill="#0BD561"/>
<path fill-rule="evenodd" clip-rule="evenodd" d="M0 17.55C0 27.2425 16.5725 45 17.5 45L17.5 26.3279C12.5999 26.3279 8.62752 22.3441 8.62752 17.43C8.62752 12.5158 12.5999 8.53211 17.5 8.53211L17.5 0C7.835 0 0 7.85738 0 17.55Z" fill="#3CDD81"/>
</svg>
